<?xml version="1.0" standalone="no"?><svg xmlns="http://www.w3.org/2000/svg" viewBox="0 0 1440 320"><path fill="#43ced5" fill-opacity="1" d="M0,128L18.5,138.7C36.9,149,74,171,111,165.3C147.7,160,185,128,222,112C258.5,96,295,96,332,117.3C369.2,139,406,181,443,202.7C480,224,517,224,554,213.3C590.8,203,628,181,665,192C701.5,203,738,245,775,240C812.3,235,849,181,886,138.7C923.1,96,960,64,997,74.7C1033.8,85,1071,139,1108,176C1144.6,213,1182,235,1218,208C1255.4,181,1292,107,1329,85.3C1366.2,64,1403,96,1422,112L1440,128L1440,0L1421.5,0C1403.1,0,1366,0,1329,0C1292.3,0,1255,0,1218,0C1181.5,0,1145,0,1108,0C1070.8,0,1034,0,997,0C960,0,923,0,886,0C849.2,0,812,0,775,0C738.5,0,702,0,665,0C627.7,0,591,0,554,0C516.9,0,480,0,443,0C406.2,0,369,0,332,0C295.4,0,258,0,222,0C184.6,0,148,0,111,0C73.8,0,37,0,18,0L0,0Z"></path></svg>